<svg width="124" height="24" viewBox="0 0 124 24" fill="none" xmlns="http://www.w3.org/2000/svg">
<g clip-path="url(#clip0_249_88)">
<path d="M7.9454 23.5703H3.31527V11.9821H0.161133V8.20927H3.31514V5.52461C3.31514 2.34328 4.71017 0.0616455 9.32777 0.0616455C10.3044 0.0616455 11.8377 0.259276 11.8377 0.259276V3.76259H10.2272C8.58633 3.76259 7.94564 4.2637 7.94564 5.64908V8.20927H11.7762L11.4351 11.9821H7.94552L7.9454 23.5703ZM18.5694 7.90777C18.5019 7.90777 18.4325 7.91024 18.3638 7.91196C14.0705 7.91196 12.1061 11.1542 12.1061 15.7567C12.1061 21.5546 14.6541 23.8751 18.3973 23.8751C20.539 23.8751 21.946 22.9701 22.8012 21.2813V23.5719H27.2052V8.21088H22.8012V10.5732C22.1029 9.05333 20.6565 7.92578 18.5694 7.90777ZM19.6891 11.5375C21.4924 11.5375 22.5747 12.8003 22.5747 14.9482L22.5788 17.142C22.5788 18.5897 21.6849 20.2834 19.6891 20.2834C16.6209 20.2834 16.7029 16.9572 16.7029 15.8494C16.7029 12.1229 18.3376 11.5375 19.6891 11.5375ZM28.9837 15.8922C28.9837 14.0256 28.8947 7.91776 36.8208 7.91776C40.0024 7.91776 41.331 8.93342 41.331 8.93342L40.2632 12.2585C40.2632 12.2585 38.9364 11.5249 37.2075 11.5249C34.9931 11.5249 33.5801 12.8137 33.5801 15.0813L33.5826 16.7073C33.5826 18.8861 34.9459 20.3406 37.212 20.3406C38.7871 20.3406 40.2387 19.6002 40.2387 19.6002L41.3038 22.8558C41.3038 22.8558 40.0891 23.8778 36.843 23.8778C29.2962 23.8778 28.9838 18.398 28.9838 15.8922H28.9837ZM67.1528 7.91196C71.4462 7.91196 73.4415 11.1542 73.4415 15.7567C73.4415 21.5546 70.8934 23.8751 67.1502 23.8751C65.0086 23.8751 63.4254 22.9702 62.5702 21.2813V23.5719L58.2217 23.5702V0.528705L62.8387 0.124438V10.3651C63.505 8.57345 65.6948 7.91196 67.1528 7.91196ZM65.8584 11.5375C64.0551 11.5375 62.8387 12.8003 62.8387 14.9482L62.8344 17.142C62.8317 18.5897 63.6768 20.2834 65.8584 20.2834C68.9266 20.2834 68.8447 16.9572 68.8447 15.8494C68.8447 12.1229 67.21 11.5375 65.8584 11.5375ZM49.3418 7.92467C44.4722 7.92467 41.9014 10.5902 41.9014 15.3272V16.2073C41.9014 22.3554 45.5116 23.9383 49.8158 23.9383C53.9994 23.9383 55.893 22.7635 55.893 22.7635L55.0291 19.6349C55.0291 19.6349 52.8016 20.5865 50.3693 20.5865C47.8479 20.5865 46.7635 19.9413 46.4856 17.5085H56.2622V14.9987C56.2622 9.86026 53.3769 7.92455 49.3417 7.92455L49.3418 7.92467ZM49.4592 11.0574C51.1448 11.0574 52.2371 12.0951 52.1771 14.5019H46.494C46.5926 11.9688 47.7705 11.0574 49.4592 11.0574ZM82.6476 7.90357C77.6468 7.90357 75.0142 10.7328 75.0142 15.803C75.0142 22.7595 79.5523 23.8793 82.6559 23.8793C87.1994 23.8793 90.2222 21.4235 90.2222 15.8662C90.2222 10.0819 86.8234 7.90357 82.6476 7.90357ZM82.5847 11.5501C84.7835 11.5501 85.6549 13.2023 85.6549 15.083V16.7C85.6549 18.9783 84.4357 20.2961 82.5763 20.2961C80.8373 20.2961 79.6152 19.0634 79.6152 16.7V15.083C79.6152 12.5624 81.0695 11.5501 82.5847 11.5501ZM99.42 7.90357C94.4193 7.90357 91.7867 10.7328 91.7867 15.803C91.7867 22.7595 96.3248 23.8793 99.4284 23.8793C103.972 23.8793 106.995 21.4235 106.995 15.8662C106.995 10.0819 103.596 7.90357 99.42 7.90357ZM99.3571 11.5501C101.556 11.5501 102.427 13.2023 102.427 15.083V16.7C102.427 18.9783 101.208 20.2961 99.3488 20.2961C97.6098 20.2961 96.3877 19.0634 96.3877 16.7V15.083C96.3877 12.5624 97.8419 11.5501 99.3571 11.5501ZM108.739 23.5703V0.528705L113.37 0.124438V15.5684L117.964 8.20927H122.854L118.061 15.8311L123.038 23.5703H118.134L113.37 16.0556V23.5703H108.739Z" fill="#1877F2"/>
</g>
<defs>
<clipPath id="clip0_249_88">
<rect width="123" height="24" fill="white" transform="translate(0.0996094)"/>
</clipPath>
</defs>
</svg>
