<svg width="32" height="32" viewBox="0 0 32 32" fill="none" xmlns="http://www.w3.org/2000/svg">
<path d="M18.9337 3.8335C17.2982 3.8335 15.7296 4.4832 14.5732 5.63967C13.4167 6.79614 12.767 8.36466 12.767 10.0002V13.4335H9.46699C9.30166 13.4335 9.16699 13.5668 9.16699 13.7335V18.2668C9.16699 18.4322 9.30033 18.5668 9.46699 18.5668H12.767V27.8668C12.767 28.0322 12.9003 28.1668 13.067 28.1668H17.6003C17.7657 28.1668 17.9003 28.0335 17.9003 27.8668V18.5668H21.2297C21.367 18.5668 21.487 18.4735 21.5203 18.3402L22.6537 13.8068C22.6648 13.7626 22.6657 13.7164 22.6563 13.6718C22.6469 13.6271 22.6275 13.5852 22.5995 13.5492C22.5714 13.5132 22.5356 13.4841 22.4946 13.464C22.4536 13.444 22.4086 13.4335 22.363 13.4335H17.9003V10.0002C17.9003 9.86446 17.9271 9.73009 17.979 9.60472C18.0309 9.47935 18.107 9.36544 18.203 9.26948C18.2989 9.17353 18.4129 9.09742 18.5382 9.04549C18.6636 8.99356 18.798 8.96683 18.9337 8.96683H22.4003C22.5657 8.96683 22.7003 8.8335 22.7003 8.66683V4.1335C22.7003 3.96816 22.567 3.8335 22.4003 3.8335H18.9337Z" fill="white"/>
</svg>
