<svg width="77" height="24" viewBox="0 0 77 24" fill="none" xmlns="http://www.w3.org/2000/svg">
<g clip-path="url(#clip0_249_123)">
<path d="M10.3066 8.56364V11.1273H16.4453C16.2823 12.5455 15.7934 13.6364 15.0328 14.3455C14.1636 15.2182 12.7512 16.2 10.3066 16.2C6.5582 16.2 3.62468 13.1455 3.62468 9.38182C3.62468 5.61818 6.50388 2.56364 10.3066 2.56364C12.3166 2.56364 13.8377 3.38182 14.9242 4.41818L16.7169 2.61818C15.1958 1.14545 13.1315 0 10.3066 0C5.14577 0 0.799805 4.2 0.799805 9.38182C0.799805 14.5636 5.14577 18.7636 10.3066 18.7636C13.0771 18.7636 15.1958 17.8364 16.8255 16.1455C18.5096 14.4545 19.0528 12.0545 19.0528 10.1455C19.0528 9.54546 18.9985 9 18.9442 8.56364H10.3066Z" fill="#4285F4"/>
<path d="M26.6586 6.4364C23.3448 6.4364 20.5742 9.00004 20.5742 12.4909C20.5742 15.9819 23.2904 18.5455 26.6586 18.5455C30.0267 18.5455 32.7429 16.0364 32.7429 12.5455C32.7429 9.00004 30.0267 6.4364 26.6586 6.4364ZM26.6586 16.2C24.8115 16.2 23.2361 14.6728 23.2361 12.5455C23.2361 10.3637 24.8115 8.89095 26.6586 8.89095C28.5056 8.89095 30.081 10.3637 30.081 12.5455C30.081 14.6728 28.5056 16.2 26.6586 16.2Z" fill="#EA4335"/>
<path d="M56.3737 7.80004H56.2651C55.6675 7.09095 54.5267 6.4364 53.0599 6.4364C50.0177 6.4364 47.4102 9.05458 47.4102 12.4909C47.4102 15.8728 50.0177 18.5455 53.0599 18.5455C54.5267 18.5455 55.6675 17.8909 56.2651 17.1819H56.3737V18.0546C56.3737 20.3455 55.1242 21.6 53.1686 21.6C51.5388 21.6 50.561 20.4546 50.1264 19.4182L47.8447 20.4C48.4966 21.9819 50.2894 24 53.2229 24C56.3194 24 58.9813 22.1455 58.9813 17.6728V6.76367H56.4823V7.80004H56.3737ZM53.3315 16.2C51.4845 16.2 50.1264 14.6182 50.1264 12.5455C50.1264 10.4182 51.5388 8.89095 53.3315 8.89095C55.1242 8.89095 56.5367 10.4728 56.5367 12.6C56.591 14.6728 55.1786 16.2 53.3315 16.2Z" fill="#4285F4"/>
<path d="M40.1849 6.4364C36.8711 6.4364 34.1006 9.00004 34.1006 12.4909C34.1006 15.9819 36.8168 18.5455 40.1849 18.5455C43.5531 18.5455 46.2693 16.0364 46.2693 12.5455C46.2693 9.00004 43.5531 6.4364 40.1849 6.4364ZM40.1849 16.2C38.3379 16.2 36.7625 14.6728 36.7625 12.5455C36.7625 10.3637 38.3379 8.89095 40.1849 8.89095C42.032 8.89095 43.6074 10.3637 43.6074 12.5455C43.6074 14.6728 42.032 16.2 40.1849 16.2Z" fill="#FBBC05"/>
<path d="M60.9912 0.272705H63.5988V18.6H60.9912V0.272705Z" fill="#34A853"/>
<path d="M71.6388 16.2C70.2807 16.2 69.3572 15.6 68.7053 14.3455L76.7996 11.0182L76.528 10.3091C76.0391 8.94549 74.4637 6.4364 71.3672 6.4364C68.2707 6.4364 65.6631 8.89095 65.6631 12.4909C65.6631 15.8728 68.2163 18.5455 71.6388 18.5455C74.4093 18.5455 75.9847 16.8546 76.691 15.8728L74.6266 14.5091C73.9204 15.5455 72.9969 16.2 71.6388 16.2ZM71.4758 8.72731C72.5623 8.72731 73.4858 9.27276 73.7574 10.0364L68.325 12.3273C68.2707 9.81822 70.1177 8.72731 71.4758 8.72731Z" fill="#EA4335"/>
</g>
<defs>
<clipPath id="clip0_249_123">
<rect width="76" height="24" fill="white" transform="translate(0.799805)"/>
</clipPath>
</defs>
</svg>
