<svg width="32" height="32" viewBox="0 0 32 32" fill="none" xmlns="http://www.w3.org/2000/svg">
<path d="M16.001 12.1252C14.9733 12.1252 13.9876 12.5334 13.2609 13.2601C12.5342 13.9868 12.126 14.9724 12.126 16.0002C12.126 17.0279 12.5342 18.0135 13.2609 18.7402C13.9876 19.4669 14.9733 19.8752 16.001 19.8752C17.0287 19.8752 18.0143 19.4669 18.741 18.7402C19.4677 18.0135 19.876 17.0279 19.876 16.0002C19.876 14.9724 19.4677 13.9868 18.741 13.2601C18.0143 12.5334 17.0287 12.1252 16.001 12.1252ZM16.001 9.54183C17.7138 9.54183 19.3565 10.2223 20.5677 11.4334C21.7789 12.6446 22.4593 14.2873 22.4593 16.0002C22.4593 17.713 21.7789 19.3557 20.5677 20.5669C19.3565 21.7781 17.7138 22.4585 16.001 22.4585C14.2881 22.4585 12.6454 21.7781 11.4342 20.5669C10.2231 19.3557 9.54263 17.713 9.54263 16.0002C9.54263 14.2873 10.2231 12.6446 11.4342 11.4334C12.6454 10.2223 14.2881 9.54183 16.001 9.54183ZM24.3968 9.21891C24.3968 9.64713 24.2267 10.0578 23.9239 10.3606C23.6211 10.6634 23.2104 10.8335 22.7822 10.8335C22.354 10.8335 21.9433 10.6634 21.6405 10.3606C21.3377 10.0578 21.1676 9.64713 21.1676 9.21891C21.1676 8.7907 21.3377 8.38002 21.6405 8.07723C21.9433 7.77444 22.354 7.60433 22.7822 7.60433C23.2104 7.60433 23.6211 7.77444 23.9239 8.07723C24.2267 8.38002 24.3968 8.7907 24.3968 9.21891ZM16.001 5.66683C12.8054 5.66683 12.2835 5.67587 10.7968 5.74175C9.78417 5.78954 9.10476 5.92516 8.47442 6.17058C7.94721 6.36481 7.47044 6.67515 7.07942 7.07862C6.67549 7.4695 6.3647 7.94628 6.17009 8.47362C5.92467 9.10654 5.78905 9.78466 5.74255 10.796C5.67538 12.222 5.66634 12.7206 5.66634 16.0002C5.66634 19.197 5.67538 19.7176 5.74126 21.2043C5.78905 22.2157 5.92467 22.8964 6.1688 23.5254C6.38838 24.0873 6.64672 24.4916 7.07555 24.9204C7.51084 25.3544 7.91513 25.614 8.47055 25.8285C9.10863 26.0752 9.78805 26.2121 10.7955 26.2586C12.2215 26.3257 12.7201 26.3335 15.9997 26.3335C19.1965 26.3335 19.7171 26.3245 21.2038 26.2586C22.2139 26.2108 22.8933 26.0752 23.5249 25.831C24.0521 25.6368 24.5289 25.3265 24.9199 24.923C25.3552 24.489 25.6148 24.0847 25.8293 23.528C26.0747 22.8925 26.2116 22.2131 26.2581 21.203C26.3253 19.7783 26.333 19.2784 26.333 16.0002C26.333 12.8046 26.324 12.2827 26.2581 10.796C26.2103 9.78595 26.0734 9.10395 25.8293 8.47362C25.635 7.9464 25.3247 7.46964 24.9212 7.07862C24.5303 6.67468 24.0536 6.36389 23.5262 6.16929C22.8933 5.92387 22.2139 5.78825 21.2038 5.74175C19.7791 5.67458 19.2805 5.66683 15.9997 5.66683M15.9997 3.0835C19.5091 3.0835 19.947 3.09641 21.3252 3.161C22.6995 3.22558 23.6373 3.44129 24.4601 3.76162C25.3126 4.0897 26.0308 4.53404 26.7489 5.25091C27.406 5.8964 27.9142 6.67752 28.2382 7.53975C28.5573 8.36254 28.7743 9.30029 28.8388 10.6759C28.8995 12.0528 28.9163 12.4907 28.9163 16.0002C28.9163 19.5096 28.9034 19.9475 28.8388 21.3244C28.7743 22.7013 28.5573 23.6365 28.2382 24.4606C27.9142 25.3228 27.406 26.1039 26.7489 26.7494C26.1034 27.4065 25.3223 27.9147 24.4601 28.2387C23.6373 28.5577 22.6995 28.7747 21.3252 28.8393C19.947 28.9 19.5091 28.9168 15.9997 28.9168C12.4902 28.9168 12.0523 28.9039 10.6741 28.8393C9.2998 28.7747 8.36334 28.5577 7.53926 28.2387C6.67703 27.9147 5.89591 27.4065 5.25042 26.7494C4.59336 26.1039 4.0851 25.3228 3.76113 24.4606C3.4408 23.6378 3.22509 22.7 3.16051 21.3244C3.09851 19.9475 3.08301 19.5096 3.08301 16.0002C3.08301 12.4907 3.09592 12.0528 3.16051 10.6759C3.22509 9.299 3.4408 8.36383 3.76113 7.53975C4.0851 6.67752 4.59336 5.8964 5.25042 5.25091C5.89591 4.59385 6.67703 4.08559 7.53926 3.76162C8.36205 3.44129 9.29851 3.22558 10.6741 3.161C12.0536 3.10029 12.4915 3.0835 16.001 3.0835" fill="white"/>
</svg>
