<svg width="86" height="24" viewBox="0 0 86 24" fill="none" xmlns="http://www.w3.org/2000/svg">
<g id="Logo.svg" clip-path="url(#clip0_249_205)">
<path id="Vector" d="M5.27621 0.0832018C3.53584 0.808087 1.62212 2.85383 1.01808 5.42695C0.251731 8.68433 3.43784 10.0599 3.69817 9.61112C4.00448 9.07881 3.12541 8.90014 2.94591 7.21114C2.71495 5.02703 3.73248 2.58681 5.01649 1.51605C5.256 1.32032 5.24438 1.59653 5.24438 2.10572C5.24438 3.024 5.19292 11.2397 5.19292 12.955C5.19292 15.2769 5.09735 16.008 4.92093 16.7299C4.74753 17.464 4.46699 17.9591 4.67834 18.1518C4.91785 18.3646 5.93538 17.858 6.52531 17.0385C7.23101 16.0567 7.47971 14.8769 7.52566 13.5965C7.57771 12.0544 7.57468 9.60258 7.57771 8.20686C7.57771 6.92331 7.59793 3.17093 7.55749 0.911806C7.54587 0.359418 6.00213 -0.219265 5.27621 0.0832018ZM85.5154 12.2727C85.2666 12.2727 85.1485 12.5318 85.0529 12.9667C84.7234 14.483 84.3766 14.8251 83.9282 14.8251C83.4283 14.8251 82.9798 14.0746 82.8617 12.5721C82.7722 11.3922 82.7864 9.21664 82.9021 7.05264C82.9254 6.60937 82.8034 6.16971 81.6065 5.73499C81.0893 5.55083 80.3402 5.27462 79.9678 6.17218C78.9122 8.70203 78.5018 10.716 78.4032 11.5306C78.4009 11.5733 78.3487 11.5794 78.3395 11.4818C78.2795 10.8282 78.1404 9.6398 78.1233 7.14169C78.1171 6.65876 78.016 6.24105 77.4726 5.90145C77.1228 5.68313 76.0588 5.29167 75.6741 5.7551C75.3445 6.13496 74.9604 7.15384 74.5585 8.36238C74.2345 9.34653 74.0091 10.0142 74.0091 10.0142C74.0091 10.0142 74.0113 7.36055 74.0177 6.35327C74.0177 5.97339 73.7573 5.84717 73.6796 5.82398C73.3236 5.72035 72.6209 5.55083 72.3264 5.55083C71.9594 5.55083 71.8724 5.75512 71.8724 6.05145C71.8724 6.08863 71.8117 9.54166 71.8117 11.9563V12.2958C71.612 13.4069 70.9535 14.9148 70.2393 14.9148C69.5249 14.9148 69.1867 14.2843 69.1867 11.4069C69.1867 9.72884 69.2388 8.99837 69.2621 7.78375C69.2763 7.08434 69.305 6.54653 69.3026 6.42279C69.2964 6.05145 68.6458 5.8612 68.3451 5.79229C68.0418 5.72035 67.7784 5.69717 67.5708 5.70573C67.2817 5.72337 67.0764 5.91302 67.0764 6.17827V6.58069C66.7034 5.99411 66.0987 5.58499 65.6944 5.46728C64.6132 5.1478 63.4823 5.43252 62.6296 6.61788C61.9533 7.56241 61.5453 8.62946 61.3866 10.1636C61.2678 11.2861 61.3058 12.4227 61.5166 13.3837C61.2623 14.4684 60.7937 14.9148 60.2821 14.9148C59.5359 14.9148 58.9988 13.7057 59.0594 11.6136C59.103 10.2386 59.3774 9.27459 59.6806 7.8758C59.8111 7.28007 59.7039 6.96973 59.441 6.66727C59.201 6.39653 58.6863 6.25568 57.9494 6.42522C57.4256 6.54901 56.6715 6.6813 55.986 6.78251C55.986 6.78251 56.0264 6.61788 56.0613 6.32767C56.2378 4.80508 54.5752 4.92889 54.046 5.41547C53.728 5.70573 53.5112 6.04838 53.4302 6.66425C53.3004 7.64289 54.1011 8.10323 54.1011 8.10323C53.8383 9.3002 53.1962 10.8654 52.5285 11.9966C52.1727 12.6038 51.9006 13.0502 51.5484 13.5276C51.5452 13.352 51.5452 13.1733 51.5452 12.9983C51.5391 10.4801 51.571 8.49775 51.5856 7.78375C51.6003 7.08434 51.6292 6.56058 51.6292 6.43678C51.6231 6.16605 51.4644 6.05995 51.1286 5.93314C50.834 5.81849 50.4842 5.73499 50.1228 5.70573C49.6688 5.67156 49.3914 5.91302 49.4 6.19779V6.58069C49.0243 5.99411 48.4198 5.58499 48.0209 5.46728C46.9366 5.1478 45.8065 5.43252 44.9537 6.61788C44.2799 7.56241 43.8345 8.88312 43.7071 10.149C43.5919 11.3349 43.6121 12.3361 43.7739 13.1824C43.6005 14.0281 43.1061 14.9148 42.5456 14.9148C41.8313 14.9148 41.4233 14.2843 41.4233 11.4069C41.4233 9.72884 41.4754 8.99837 41.5018 7.78375C41.5158 7.08434 41.5422 6.54653 41.5391 6.42279C41.536 6.05145 40.8861 5.8612 40.5823 5.79229C40.2674 5.71788 39.9924 5.69475 39.784 5.70573C39.5066 5.72886 39.313 5.97339 39.313 6.16056V6.58069C38.9374 5.99411 38.3328 5.58499 37.9309 5.46728C36.8498 5.1478 35.7281 5.43865 34.8693 6.61788C34.3087 7.3868 33.8547 8.24106 33.6207 10.1349C33.5571 10.6819 33.5252 11.1935 33.5282 11.6715C33.3053 13.0294 32.3196 14.5952 31.5159 14.5952C31.0417 14.5952 30.5909 13.6855 30.5909 11.7434C30.5909 9.15935 30.7525 5.47583 30.7814 5.11913C30.7814 5.11913 31.7989 5.10143 31.9986 5.099C32.5046 5.09594 32.9671 5.10756 33.641 5.0728C33.9822 5.05574 34.3087 3.84413 33.9558 3.69171C33.7997 3.62522 32.678 3.56486 32.2326 3.55635C31.8571 3.54781 30.8187 3.47038 30.8187 3.47038C30.8187 3.47038 30.9119 1.02709 30.9321 0.771C30.9492 0.552084 30.6717 0.44297 30.5101 0.376476C30.1191 0.210014 29.7694 0.131997 29.3589 0.0484461C28.7837 -0.0692204 28.5264 0.0460224 28.4774 0.52588C28.4021 1.25451 28.3617 3.38989 28.3617 3.38989C27.9395 3.38989 26.5086 3.30575 26.0889 3.30575C25.6993 3.30575 25.2767 4.97521 25.8175 4.99533C26.4394 5.01852 27.5175 5.0417 28.2342 5.06118C28.2342 5.06118 28.2023 8.80566 28.2023 9.95932V10.316C27.8066 12.3617 26.4216 13.4672 26.4216 13.4672C26.7193 12.1118 26.1122 11.0959 25.0138 10.2386C24.6089 9.91908 23.8113 9.31725 22.9175 8.66421C22.9175 8.66421 23.4351 8.15508 23.8946 7.1362C24.2187 6.41364 24.2334 5.58252 23.4351 5.40083C22.1169 5.099 21.0326 6.06302 20.7061 7.09289C20.4574 7.88737 20.5878 8.48006 21.0816 9.09285L21.1943 9.23128C20.8997 9.80077 20.4892 10.5691 20.1449 11.1648C19.1825 12.8197 18.4566 14.1264 17.9101 14.1264C17.471 14.1264 17.4764 12.7996 17.4764 11.5563C17.4764 10.4856 17.5574 8.87152 17.621 7.20264C17.6413 6.65263 17.3638 6.33617 16.8988 6.05145C16.6151 5.87886 16.0136 5.53926 15.6638 5.53926C15.1438 5.53926 13.6343 5.60813 12.2094 9.70871C12.0299 10.227 11.6771 11.1679 11.6771 11.1679L11.7089 6.23557C11.7089 6.12032 11.6483 6.0112 11.5068 5.93314C11.2666 5.80387 10.6222 5.53926 10.0555 5.53926C9.78047 5.53926 9.64447 5.66607 9.64447 5.91608L9.59853 13.6282C9.59853 14.2154 9.61263 14.9001 9.67084 15.1995C9.72841 15.4989 9.82398 15.7434 9.93975 15.8898C10.0555 16.0312 10.1909 16.1404 10.4108 16.1892C10.6161 16.2324 11.7463 16.3732 11.8045 15.9447C11.8768 15.4294 11.8792 14.8745 12.4722 12.794C13.3973 9.55931 14.6004 7.98249 15.167 7.42092C15.2681 7.32337 15.3808 7.31729 15.3747 7.47886C15.3489 8.1892 15.265 9.95932 15.2074 11.4642C15.0542 15.4959 15.7881 16.241 16.8437 16.241C17.6474 16.241 18.7808 15.444 19.9979 13.43C20.7582 12.1722 21.4927 10.9435 22.0244 10.0544C22.3889 10.3934 22.8049 10.7593 23.2183 11.1508C24.1813 12.0569 24.4962 12.9203 24.2855 13.738C24.1261 14.3647 23.5222 15.0093 22.4495 14.3824C22.1371 14.2008 22.0042 14.06 21.6892 13.8525C21.5214 13.7404 21.261 13.7086 21.108 13.8239C20.703 14.1264 20.4745 14.5087 20.3415 14.9837C20.2172 15.4471 20.6828 15.6885 21.1655 15.9013C21.579 16.0886 22.4697 16.2525 23.0389 16.2727C25.2564 16.3477 27.0317 15.208 28.2661 12.2727C28.489 14.8081 29.4282 16.2441 31.0619 16.2441C32.1572 16.2441 33.2532 14.8368 33.7335 13.4526C33.8688 14.0166 34.0741 14.5056 34.3376 14.9234C35.5983 16.9086 38.0437 16.483 39.2695 14.7965C39.6511 14.2726 39.7094 14.0855 39.7094 14.0855C39.8882 15.6776 41.1777 16.2379 41.9152 16.2379C42.7447 16.2379 43.5949 15.8471 44.1929 14.5056C44.2652 14.6526 44.3405 14.791 44.4275 14.9234C45.6851 16.9086 48.1306 16.483 49.3595 14.7965C49.4146 14.713 49.4667 14.644 49.5095 14.5776L49.5475 15.6251C49.5475 15.6251 48.8449 16.2642 48.4143 16.658C46.5207 18.3879 45.0806 19.7001 44.974 21.225C44.841 23.1732 46.4252 23.8958 47.6277 23.9903C48.9001 24.0915 49.9929 23.392 50.663 22.4079C51.253 21.5445 51.6407 19.6886 51.612 17.8526C51.6004 17.1159 51.5827 16.1836 51.5654 15.1794C52.2332 14.4141 52.9849 13.4409 53.6733 12.302C54.4275 11.0642 55.2312 9.39775 55.6416 8.10021C55.6416 8.10021 56.3443 8.1063 57.0904 8.05996C57.3305 8.04533 57.3997 8.09472 57.3532 8.26726C57.3011 8.47704 56.4111 11.8989 57.2233 14.1782C57.7815 15.7373 59.033 16.241 59.7791 16.241C60.6489 16.241 61.4821 15.5849 61.9268 14.6123C61.982 14.719 62.0371 14.8251 62.1008 14.9234C63.3584 16.9086 65.7953 16.48 67.0328 14.7965C67.3134 14.4141 67.4696 14.0855 67.4696 14.0855C67.7354 15.7349 69.0249 16.2441 69.7619 16.2441C70.5337 16.2441 71.2621 15.9305 71.8551 14.5373C71.8785 15.1508 71.9158 15.6513 71.9794 15.8092C72.0168 15.9075 72.2367 16.0282 72.393 16.0886C73.098 16.3477 73.8153 16.2239 74.0782 16.169C74.2632 16.1318 74.4078 15.9879 74.4255 15.6081C74.477 14.6123 74.4452 12.9404 74.749 11.6947C75.2605 9.61117 75.7347 8.80264 75.96 8.40263C76.0851 8.17763 76.2291 8.14046 76.2321 8.37643C76.2407 8.85688 76.267 10.2672 76.4661 12.1666C76.6082 13.5593 76.8018 14.3849 76.9519 14.6471C77.374 15.3922 77.9002 15.4269 78.3254 15.4269C78.5973 15.4269 79.1639 15.3519 79.1143 14.8769C79.0886 14.6471 79.1321 13.2166 79.6319 11.1624C79.9616 9.81847 80.5079 8.60691 80.7046 8.16359C80.78 7.9996 80.8118 8.12641 80.8118 8.15203C80.7683 9.07579 80.6758 12.1002 81.0513 13.752C81.5666 15.994 83.049 16.2441 83.5666 16.2441C84.6682 16.2441 85.5735 15.4093 85.8768 13.2112C85.9521 12.6813 85.842 12.2727 85.5154 12.2727ZM39.2896 10.9147C39.229 12.077 39.0005 13.0501 38.6366 13.755C37.9713 15.0354 36.6622 15.4384 36.0864 13.594C35.6674 12.2617 35.8089 10.4428 35.9853 9.46112C36.2395 8.00505 36.8846 6.97517 37.8905 7.06965C38.9197 7.1709 39.4225 8.49163 39.2896 10.9147ZM49.3767 10.9318C49.3191 12.0282 49.033 13.133 48.7207 13.755C48.0762 15.044 46.7285 15.447 46.1704 13.594C45.7894 12.3245 45.8788 10.6873 46.0693 9.65685C46.3155 8.31601 46.9079 7.06965 47.9751 7.06965C49.0129 7.06965 49.5243 8.20379 49.3767 10.9318ZM49.6401 18.425C49.6254 20.4311 49.3106 22.1866 48.6337 22.6988C47.6681 23.4238 46.3701 22.8769 46.6391 21.4152C46.8761 20.1202 48.0009 18.7995 49.6432 17.1848C49.6432 17.1848 49.6489 17.553 49.6401 18.425ZM67.0561 10.9434C66.9979 12.1495 66.729 13.0903 66.397 13.755C65.7519 15.044 64.4165 15.444 63.8467 13.594C63.5374 12.5836 63.5227 10.8971 63.7456 9.4904C63.9711 8.05686 64.6046 6.97517 65.6508 7.06965C66.6855 7.16784 67.1689 8.49163 67.0561 10.9434Z" fill="#231E1F"/>
</g>
<defs>
<clipPath id="clip0_249_205">
<rect width="85" height="24" fill="white" transform="translate(0.899414)"/>
</clipPath>
</defs>
</svg>
