<svg width="117" height="88" viewBox="0 0 117 88" fill="none" xmlns="http://www.w3.org/2000/svg">
<g clip-path="url(#clip0_12_74)">
<path d="M58.4991 0C58.4991 0 56.2646 8.09581 49.0801 9.57019C49.0801 9.57019 57.2642 12.3832 57.2348 21.022V29.9242H59.7607V21.022C59.7339 12.3832 67.9181 9.57019 67.9181 9.57019C60.7336 8.09581 58.4991 0 58.4991 0ZM58.5098 14.7039C57.5128 11.6301 54.6128 9.71923 54.6128 9.71923C57.4006 8.01331 58.5098 5.48769 58.5098 5.48769C58.5098 5.48769 59.619 8.01331 62.4068 9.71923C62.4068 9.71923 59.5067 11.6301 58.5098 14.7039Z" fill="white"/>
<path d="M34.1522 24.604C36.4454 26.7703 37.3221 29.1628 37.7631 30.4802C38.0732 31.4117 38.9926 31.6565 39.9682 31.1509C40.9304 30.6532 40.6204 29.3757 39.5299 26.9805C38.2817 24.2447 35.3817 22.0783 33.5534 19.8827C31.9444 17.9479 32.4282 16.6678 33.5802 16.0956C34.8123 15.4835 37.8219 15.8641 40.893 21.2933C43.9079 26.6292 43.9881 29.4742 44.2153 30.1449C44.3971 30.6825 45.0038 30.7836 45.6239 30.725C46.4124 30.6479 46.9229 30.4935 46.9416 30.0065C46.9817 29.0005 46.6957 27.4942 45.6961 24.6705C44.4479 21.1495 41.9862 17.7776 41.9862 17.7776C41.9862 17.7776 42.9698 16.6998 44.1619 16.6811C45.9607 16.6519 47.7274 18.435 48.6094 20.0797C49.4915 21.7217 50.3067 24.4815 50.4644 27.3451C50.5847 29.57 50.4216 30.2061 51.873 30.3046C52.9394 30.3737 53.3991 30.2087 53.3965 29.5993C53.3911 28.5348 53.2227 24.242 52.3193 21.5195C51.4159 18.7969 49.7882 15.7177 46.84 14.4403C44.2608 13.3225 41.5826 13.8229 39.9549 15.1269C39.3695 14.5414 36.3439 12.3751 33.3075 13.0617C30.0841 13.7909 29.0364 16.8142 29.7607 19.0205C30.3461 20.8062 31.8669 22.435 34.1628 24.5986L34.1522 24.604Z" fill="white"/>
<path d="M64.6865 21.5223C63.7831 24.2475 63.6121 28.5376 63.6094 29.6021C63.6067 30.2116 64.0664 30.3766 65.1329 30.3074C66.5842 30.2116 66.4212 29.5755 66.5415 27.348C66.6965 24.4844 67.5144 21.7245 68.3964 20.0825C69.2784 18.4378 71.0452 16.6573 72.844 16.684C74.0361 16.7026 75.0197 17.7804 75.0197 17.7804C75.0197 17.7804 72.558 21.1524 71.3098 24.6733C70.3101 27.497 70.0242 29.0033 70.0642 30.0093C70.083 30.4963 70.5935 30.6507 71.3819 30.7279C71.9994 30.7891 72.6088 30.6853 72.7905 30.1477C73.015 29.477 73.0952 26.6321 76.1128 21.2961C79.1839 15.8643 82.1935 15.4864 83.4257 16.0985C84.575 16.668 85.0614 17.9508 83.4524 19.8856C81.6242 22.0812 78.7242 24.2475 77.476 26.9834C76.3828 29.3786 76.0727 30.656 77.0376 31.1537C78.0132 31.6567 78.9327 31.4118 79.2427 30.483C79.6837 29.1657 80.5577 26.7704 82.8537 24.6068C85.147 22.4404 86.6705 20.8144 87.2558 19.0286C87.9775 16.8223 86.9297 13.7991 83.709 13.0698C80.6727 12.3806 77.647 14.5496 77.0617 15.1351C75.4339 13.831 72.7558 13.3307 70.1765 14.4484C67.2284 15.7259 65.6006 18.805 64.6972 21.5276L64.6865 21.5223Z" fill="white"/>
<path d="M94.2349 21.1709C93.4998 21.1709 92.861 21.5754 92.5269 22.1716C92.5269 22.1716 89.4024 22.6613 86.5211 25.6553C84.2545 28.0132 82.8968 30.3605 82.1243 34.1955C82.1243 34.1955 74.6057 32.1649 58.4993 32.3219C42.3928 32.1676 34.8742 34.1955 34.8742 34.1955C34.1018 30.3605 32.744 28.0132 30.4774 25.6553C27.5988 22.6613 24.4716 22.1716 24.4716 22.1716C24.1375 21.5754 23.4987 21.1709 22.7637 21.1709C21.6838 21.1709 20.8125 22.0412 20.8125 23.1137C20.8125 24.1862 21.6865 25.0591 22.7637 25.0591C23.2047 25.0591 23.6109 24.9127 23.937 24.6679C25.6209 25.3279 27.7217 26.6054 29.7664 29.1815C32.0704 32.0851 32.7974 37.5089 32.7974 37.5089C41.0778 34.6799 58.4779 35.1589 58.4993 35.1589C58.5206 35.1589 75.9207 34.6772 84.2011 37.5089C84.2011 37.5089 84.9281 32.0851 87.2321 29.1815C89.2768 26.6054 91.3776 25.3279 93.0615 24.6679C93.3876 24.9127 93.7938 25.0591 94.2349 25.0591C95.3147 25.0591 96.186 24.1889 96.186 23.1137C96.186 22.0385 95.312 21.1709 94.2349 21.1709Z" fill="white"/>
<path d="M84.2596 40.1754V42.9273C84.2596 42.9273 81.9075 41.7909 76.2999 41.0111C70.4197 40.1941 60.3939 40.1515 58.4989 40.1515C56.6039 40.1515 46.5808 40.1941 40.6979 41.0111C35.0904 41.7909 32.7383 42.9273 32.7383 42.9273V40.1754C33.4519 39.4729 37.3088 38.568 41 38.1315C47.396 37.373 58.4962 37.373 58.4962 37.373C58.4962 37.373 69.5965 37.373 75.9925 38.1315C79.6837 38.568 83.5406 39.4729 84.2542 40.1754H84.2596Z" fill="white"/>
<path d="M58.4994 42.2167C58.4994 42.2167 47.6024 41.9293 40.335 43.4143C40.335 43.4143 47.4313 44.4389 58.4994 44.3485C69.5676 44.4389 76.6639 43.4143 76.6639 43.4143C69.3965 41.9293 58.4994 42.2167 58.4994 42.2167Z" fill="white"/>
<path d="M16.6514 59.0392C17.0336 58.9727 17.1699 55.6966 17.2688 53.5702C17.3704 51.4278 17.3356 49.4344 16.9534 49.0751C16.6861 48.8223 16.3627 48.9235 15.7212 48.5296C14.8339 47.984 13.4039 46.7278 11.1186 46.9727C8.99375 47.2016 6.3824 48.2874 4.18534 51.2042C1.79584 54.3898 -0.198081 61.5675 0.0157443 67.6753C0.21086 73.288 1.17842 79.4757 5.27318 84.2421C8.94029 88.5083 12.9709 88.0319 14.0374 87.9387C15.3764 87.819 17.945 86.8476 18.2364 85.8283C18.4368 85.1284 18.6694 80.1942 18.6533 79.5954C18.6373 78.9966 17.798 79.1057 17.7847 79.6141C17.7633 80.4231 17.0737 83.5582 16.5044 84.5163C15.9324 85.4743 14.62 86.4377 12.8426 86.1902C6.7566 85.3386 5.79973 74.821 5.60461 67.976C5.39078 60.5535 6.27816 55.9467 7.65466 52.7425C8.94029 49.7511 10.552 48.4923 12.3989 48.7664C14.0828 49.0166 15.1359 50.7811 15.0985 52.8143C15.0557 55.1962 15.0423 57.4105 15.2936 58.2355C15.5341 59.0286 16.1997 59.127 16.6594 59.0445L16.6514 59.0392Z" fill="white"/>
<path d="M34.4202 73.9345C33.0143 73.4448 32.4236 71.9838 31.9238 70.9139C30.8654 68.6464 29.7962 64.4894 28.3797 62.6584C28.3797 62.6584 28.3556 62.2166 28.7859 62.0357C30.5179 61.3118 32.2953 58.4801 32.4637 56.5826C32.6161 54.8607 32.2686 53.7296 31.9773 52.9046C31.6859 52.0769 31.2609 50.9884 30.3094 50.1022C29.6546 49.4901 27.9627 48.186 24.7099 48.186C22.1787 48.186 17.9423 48.2127 17.9423 48.2127C17.9423 48.2127 17.8193 48.3404 18.1053 48.548C18.7174 48.9951 20.0137 49.8121 20.0137 50.4987V73.7722C20.0137 74.1288 19.3001 75.1215 18.0198 75.9731C18.0198 75.9731 20.4253 75.7629 22.0584 75.4834C23.6942 75.2067 24.9665 75.196 25.2444 75.2652C25.2444 75.2652 25.0814 74.5599 24.0336 74.1794V63.8055H24.9718C25.1723 63.8055 25.3567 63.9199 25.4449 64.1009C25.6828 64.5826 26.1478 65.6551 26.4739 67.2812C26.9363 69.5673 28.5721 73.4981 28.8714 74.1794C29.0425 74.5653 29.3686 75.2492 30.4003 75.4275C31.4293 75.6085 33.7146 75.5287 34.6367 75.3104C35.5588 75.0922 36.1576 74.7862 36.2858 74.4774C36.334 74.3603 35.8235 74.4189 34.4175 73.9319L34.4202 73.9345ZM27.2972 60.3643C26.049 62.528 24.0684 62.379 24.0684 62.379V49.5353C26.9925 49.5912 28.107 52.2898 28.222 54.7063C28.3342 57.1228 28.2727 58.6717 27.2972 60.3643Z" fill="white"/>
<path d="M47.3351 53.1895C45.9827 49.3092 43.4568 48.1782 41.0192 48.0903C38.579 48.1782 36.0558 49.3066 34.7034 53.1895C33.2921 57.2374 33.6529 62.6399 33.8588 64.6652C34.0646 66.6905 34.7568 74.5547 41.0192 74.5547C47.2817 74.5547 47.9739 66.6878 48.1797 64.6652C48.3855 62.6426 48.7464 57.2374 47.3351 53.1895ZM43.684 69.7031C43.39 71.6406 42.7325 73.1309 41.1689 73.1762H40.8696C39.306 73.1309 38.6484 71.6406 38.3544 69.7031C38.0524 67.7364 37.8145 55.8934 38.3999 52.3937C38.8008 49.9932 40.0811 49.5621 41.0192 49.5621C41.9574 49.5621 43.235 49.9932 43.6386 52.3937C44.224 55.8961 43.9861 67.7364 43.684 69.7031Z" fill="white"/>
<path d="M53.8647 66.5306L57.2859 54.4721L56.5562 51.015C56.4012 50.3363 55.7437 48.7049 54.5222 48.1327V48.0449H60.9984V48.1327C59.5551 48.5612 59.6219 49.7269 59.932 50.9804L63.118 65.1653L65.6518 52.0183C66.2505 49.4421 65.3605 48.8486 63.984 48.1354V48.0476H70.1234V48.335C69.3911 48.657 68.0841 49.2638 67.3517 52.2339L63.1634 74.0117C62.5567 74.0117 62.0301 73.5991 61.8885 73.011L58.0877 57.317C58.0877 57.317 53.6802 72.9924 53.3595 73.5752C53.0414 74.158 52.2129 74.0143 52.2129 74.0143L48.0059 51.0203C47.8294 50.3417 47.1238 48.7103 45.9023 48.1381V48.0502H52.3385V48.1381C50.8952 48.5665 50.8711 49.7322 51.1625 50.9857L53.8673 66.5359L53.8647 66.5306Z" fill="white"/>
<path d="M66.3174 48.0449V48.3589C66.3174 48.3589 67.5121 48.6304 68.1857 49.2664C68.8592 49.9025 68.894 51.8107 68.894 52.822V70.5066C68.894 71.4966 68.2445 73.0429 66.6595 73.8306V74.0489H72.8685V73.8466C72.8685 73.8466 71.1178 73.0136 70.8932 71.7282C70.6687 70.4454 70.8932 57.0349 70.8932 56.3403C70.8932 55.6457 74.5577 63.8639 75.5039 65.9131C76.45 67.9624 78.7567 71.7654 79.1576 72.6463C79.5585 73.5299 79.8445 74.4481 81.6059 74.4348V51.3955C81.6059 49.7348 82.7178 48.9817 83.8163 48.6277V48.1221H77.2305V48.303C77.2305 48.303 79.04 48.8752 79.5959 50.0861C80.1519 51.2997 80.1038 64.6863 80.0931 65.144C80.0824 65.6044 79.0159 63.0123 77.6341 60.0688C76.2496 57.1254 72.9273 51.0149 72.2671 49.6018C71.6042 48.1886 71.6042 48.0396 71.1552 48.0396H66.3201L66.3174 48.0449Z" fill="white"/>
<path d="M97.2738 76.3993C96.7687 76.2742 94.2268 75.7286 91.578 75.3454C88.932 74.9621 83.7066 74.9941 83.7066 74.9941C83.7066 74.9941 83.6451 74.845 83.9365 74.5975C84.2278 74.35 85.6123 73.2269 85.6123 72.3008V50.6907C85.6123 49.6128 84.8906 48.6281 83.8188 48.6281V48.1198C83.8188 48.1198 92.567 48.221 93.5533 48.2689C94.5395 48.3168 94.756 47.9814 95.1169 48.0426C95.4777 48.1039 95.7369 48.8038 95.9828 50.8929C96.178 52.5643 96.5869 55.8244 96.5869 55.8244C96.2501 55.859 95.761 55.2203 95.3868 54.3607C95.0073 53.4904 93.5345 50.4565 92.8129 50.2409C92.0885 50.0253 89.6322 50.1611 89.6322 50.1611V60.3434C89.6322 60.3434 91.5379 60.3833 92.1099 60.2875C92.9358 60.1464 93.8339 59.6887 94.2749 56.9315H94.5235V66.4937H94.2535C94.2535 66.4937 94.037 63.0686 92.1046 62.3234C91.5005 62.0892 89.6296 62.217 89.6296 62.217V73.1551C91.717 73.8391 93.7323 73.4957 94.601 72.7293C95.467 71.9628 96.3517 70.6188 96.937 68.8011C97.1028 68.2848 97.485 68.1092 97.485 68.1092C97.485 72.016 97.2738 76.3993 97.2738 76.3993Z" fill="white"/>
<path d="M113.252 52.3991C110.379 47.8907 106.488 47.1828 103.408 47.0311C100.332 46.8794 97.4561 46.8022 96.2614 46.8022C95.8284 46.8022 99.3137 48.1702 99.3137 50.1449V83.6752C99.3137 85.2959 96.0582 86.6905 95.9834 87.7018C95.9834 87.7018 99.875 88.0318 102.927 87.904C105.98 87.779 114.118 85.3225 116.179 75.0152C118.24 64.7078 116.128 56.9074 113.255 52.4017L113.252 52.3991ZM110.657 76.8994C109.454 85.759 103.767 86.0571 103.767 86.0571V50.6266C103.767 49.2959 103.465 48.5933 103.465 48.5933C108.511 48.7956 109.751 53.3545 110.454 57.3518C111.157 61.3465 111.86 68.0424 110.655 76.8994H110.657Z" fill="white"/>
<path d="M22.839 80.1968C23.1624 79.6299 23.6061 79.1881 24.1674 78.8741C24.7287 78.5574 25.3595 78.4004 26.0571 78.4004C26.8723 78.4004 27.5886 78.608 28.2033 79.0258C28.8181 79.4436 29.2457 80.0185 29.4916 80.7557H27.8051C27.6367 80.407 27.4015 80.1489 27.0995 79.9732C26.7948 79.8003 26.4446 79.7124 26.0464 79.7124C25.6214 79.7124 25.2419 79.8109 24.9104 80.0105C24.579 80.2074 24.3197 80.4895 24.1353 80.8488C23.9509 81.2108 23.8573 81.6339 23.8573 82.121C23.8573 82.608 23.9509 83.0231 24.1353 83.3877C24.3197 83.7524 24.579 84.0345 24.9104 84.2314C25.2419 84.4283 25.6214 84.5295 26.0464 84.5295C26.4446 84.5295 26.7948 84.4416 27.0995 84.2633C27.4042 84.085 27.6394 83.8242 27.8051 83.4756H29.4916C29.2484 84.2181 28.8208 84.7983 28.2087 85.2108C27.5993 85.6233 26.8803 85.8309 26.0571 85.8309C25.3595 85.8309 24.7287 85.6738 24.1674 85.3571C23.6061 85.0404 23.1624 84.6013 22.839 84.0398C22.5156 83.4756 22.3525 82.8369 22.3525 82.121C22.3525 81.4051 22.5156 80.7637 22.839 80.1995V80.1968Z" fill="white"/>
<path d="M34.3483 85.3597C33.7763 85.0403 33.3219 84.5986 32.9878 84.0317C32.6537 83.4648 32.4854 82.8235 32.4854 82.1102C32.4854 81.397 32.6537 80.7636 32.9878 80.1967C33.3219 79.6298 33.7763 79.1881 34.3483 78.8687C34.9203 78.5493 35.5484 78.3896 36.2326 78.3896C36.9169 78.3896 37.553 78.5493 38.1223 78.8687C38.6916 79.1881 39.1407 79.6325 39.4721 80.1967C39.8035 80.7636 39.9692 81.3996 39.9692 82.1102C39.9692 82.8208 39.8035 83.4675 39.4721 84.0317C39.1407 84.5986 38.689 85.0403 38.117 85.3597C37.545 85.6791 36.9169 85.8388 36.2326 85.8388C35.5484 85.8388 34.9203 85.6791 34.3483 85.3597ZM37.3953 84.2393C37.7294 84.0423 37.9914 83.7576 38.1811 83.3903C38.3709 83.0231 38.4644 82.5946 38.4644 82.1075C38.4644 81.6205 38.3709 81.1947 38.1811 80.8301C37.9914 80.4655 37.7321 80.1861 37.3953 79.9918C37.0612 79.7975 36.6737 79.699 36.2326 79.699C35.7916 79.699 35.4041 79.7975 35.0646 79.9918C34.7252 80.1861 34.4632 80.4655 34.2735 80.8301C34.0864 81.1947 33.9901 81.6205 33.9901 82.1075C33.9901 82.5946 34.0837 83.0204 34.2735 83.3903C34.4606 83.7576 34.7252 84.0423 35.0646 84.2393C35.4041 84.4362 35.7916 84.5374 36.2326 84.5374C36.6737 84.5374 37.0585 84.4389 37.3953 84.2393Z" fill="white"/>
<path d="M51.1147 78.4937V85.7671H49.65V81.0352L47.6935 85.7671H46.5842L44.617 81.0352V85.7671H43.1523V78.4937H44.8175L47.1402 83.9042L49.4629 78.4937H51.1173H51.1147Z" fill="white"/>
<path d="M59.165 78.4937V79.6726H56.118V81.5382H58.4514V82.6959H56.118V85.7698H54.6533V78.4963H59.165V78.4937Z" fill="white"/>
<path d="M63.8024 85.3597C63.2304 85.0403 62.776 84.5986 62.4419 84.0317C62.1078 83.4648 61.9395 82.8235 61.9395 82.1102C61.9395 81.397 62.1078 80.7636 62.4419 80.1967C62.776 79.6298 63.2304 79.1881 63.8024 78.8687C64.3744 78.5493 65.0025 78.3896 65.6867 78.3896C66.371 78.3896 67.0071 78.5493 67.5764 78.8687C68.1457 79.1881 68.5948 79.6325 68.9262 80.1967C69.2576 80.7609 69.4233 81.3996 69.4233 82.1102C69.4233 82.8208 69.2576 83.4675 68.9262 84.0317C68.5948 84.5986 68.1431 85.0403 67.5711 85.3597C66.9991 85.6791 66.371 85.8388 65.6867 85.8388C65.0025 85.8388 64.3744 85.6791 63.8024 85.3597ZM66.8494 84.2393C67.1835 84.0423 67.4455 83.7576 67.6352 83.3903C67.8223 83.0231 67.9185 82.5946 67.9185 82.1075C67.9185 81.6205 67.825 81.1947 67.6352 80.8301C67.4455 80.4655 67.1862 80.1861 66.8494 79.9918C66.5153 79.7975 66.1278 79.699 65.6867 79.699C65.2457 79.699 64.8582 79.7975 64.5187 79.9918C64.1793 80.1861 63.9173 80.4655 63.7276 80.8301C63.5378 81.1947 63.4442 81.6205 63.4442 82.1075C63.4442 82.5946 63.5378 83.0204 63.7276 83.3903C63.9173 83.7602 64.1793 84.0423 64.5187 84.2393C64.8582 84.4362 65.2457 84.5374 65.6867 84.5374C66.1278 84.5374 66.5126 84.4389 66.8494 84.2393Z" fill="white"/>
<path d="M76.3724 85.7671L74.7607 82.9328H74.0712V85.7671H72.6064V78.4937H75.3488C75.9127 78.4937 76.3965 78.5921 76.7921 78.7917C77.1903 78.9887 77.487 79.2575 77.6875 79.5954C77.8853 79.9334 77.9868 80.3087 77.9868 80.7265C77.9868 81.2056 77.8478 81.6394 77.5672 82.0226C77.2892 82.4085 76.8723 82.6746 76.3217 82.821L78.0697 85.7698H76.3751L76.3724 85.7671ZM74.0685 81.839H75.2926C75.6909 81.839 75.9876 81.7432 76.1827 81.5515C76.3778 81.3599 76.4767 81.0938 76.4767 80.7531C76.4767 80.4125 76.3778 80.1597 76.1827 79.976C75.9876 79.7924 75.6909 79.6992 75.2926 79.6992H74.0685V81.8363V81.839Z" fill="white"/>
<path d="M86.3798 78.4937V79.6726H84.4339V85.7698H82.9692V79.6726H81.0234V78.4937H86.3824H86.3798Z" fill="white"/>
<path d="M90.6863 85.5808C90.2773 85.4078 89.9539 85.1577 89.7187 84.8303C89.4808 84.503 89.3579 84.1171 89.3525 83.6726H90.9215C90.9429 83.9707 91.0498 84.2076 91.2395 84.3806C91.4293 84.5535 91.6939 84.6414 92.0307 84.6414C92.3675 84.6414 92.6401 84.5589 92.8379 84.3965C93.033 84.2342 93.1319 84.0186 93.1319 83.7551C93.1319 83.5396 93.0651 83.3639 92.9341 83.2229C92.8005 83.0845 92.6348 82.9754 92.437 82.8955C92.2392 82.8157 91.9639 82.7279 91.6164 82.6294C91.1407 82.491 90.7558 82.3526 90.4591 82.2169C90.1624 82.0811 89.9085 81.8762 89.6947 81.6021C89.4808 81.328 89.3766 80.9607 89.3766 80.503C89.3766 80.0718 89.4835 79.6966 89.7 79.3772C89.9165 79.0579 90.2185 78.813 90.6114 78.6427C91.0017 78.4724 91.448 78.3872 91.9505 78.3872C92.7043 78.3872 93.3163 78.5708 93.7868 78.9354C94.2572 79.3 94.5164 79.8084 94.5672 80.4631H92.9555C92.9421 80.2129 92.8352 80.0053 92.6374 79.843C92.4396 79.6806 92.175 79.5981 91.8463 79.5981C91.5603 79.5981 91.3304 79.67 91.162 79.8163C90.991 79.9627 90.9054 80.1756 90.9054 80.4524C90.9054 80.6467 90.9696 80.809 91.0979 80.9368C91.2262 81.0645 91.3866 81.171 91.579 81.2508C91.7714 81.3306 92.0414 81.4238 92.3889 81.5276C92.8646 81.666 93.2495 81.8044 93.5515 81.9454C93.8509 82.0838 94.1102 82.2941 94.3267 82.5708C94.5432 82.8476 94.6501 83.2149 94.6501 83.6646C94.6501 84.0532 94.5485 84.4151 94.3454 84.7478C94.1422 85.0805 93.8456 85.3466 93.4553 85.5462C93.0651 85.7432 92.6 85.8443 92.0628 85.8443C91.5523 85.8443 91.0952 85.7565 90.6863 85.5835V85.5808Z" fill="white"/>
</g>
<defs>
<clipPath id="clip0_12_74">
<rect width="117" height="88" fill="white"/>
</clipPath>
</defs>
</svg>
