<svg width="438" height="331" viewBox="0 0 438 331" fill="none" xmlns="http://www.w3.org/2000/svg">
<g clip-path="url(#clip0_1_3)">
<path d="M218.87 0C218.87 0 210.51 30.42 183.63 35.96C183.63 35.96 214.25 46.53 214.14 78.99V112.44H223.59V78.99C223.49 46.53 254.11 35.96 254.11 35.96C227.23 30.42 218.87 0 218.87 0ZM218.91 55.25C215.18 43.7 204.33 36.52 204.33 36.52C214.76 30.11 218.91 20.62 218.91 20.62C218.91 20.62 223.06 30.11 233.49 36.52C233.49 36.52 222.64 43.7 218.91 55.25Z" fill="#E6AF37"/>
<path d="M127.78 92.45C136.36 100.59 139.64 109.58 141.29 114.53C142.45 118.03 145.89 118.95 149.54 117.05C153.14 115.18 151.98 110.38 147.9 101.38C143.23 91.1 132.38 82.96 125.54 74.71C119.52 67.44 121.33 62.63 125.64 60.48C130.25 58.18 141.51 59.61 153 80.01C164.28 100.06 164.58 110.75 165.43 113.27C166.11 115.29 168.38 115.67 170.7 115.45C173.65 115.16 175.56 114.58 175.63 112.75C175.78 108.97 174.71 103.31 170.97 92.7C166.3 79.47 157.09 66.8 157.09 66.8C157.09 66.8 160.77 62.75 165.23 62.68C171.96 62.57 178.57 69.27 181.87 75.45C185.17 81.62 188.22 91.99 188.81 102.75C189.26 111.11 188.65 113.5 194.08 113.87C198.07 114.13 199.79 113.51 199.78 111.22C199.76 107.22 199.13 91.09 195.75 80.86C192.37 70.63 186.28 59.06 175.25 54.26C165.6 50.06 155.58 51.94 149.49 56.84C147.3 54.64 135.98 46.5 124.62 49.08C112.56 51.82 108.64 63.18 111.35 71.47C113.54 78.18 119.23 84.3 127.82 92.43L127.78 92.45Z" fill="#E6AF37"/>
<path d="M242.02 80.87C238.64 91.11 238 107.23 237.99 111.23C237.98 113.52 239.7 114.14 243.69 113.88C249.12 113.52 248.51 111.13 248.96 102.76C249.54 92 252.6 81.63 255.9 75.46C259.2 69.28 265.81 62.59 272.54 62.69C277 62.76 280.68 66.81 280.68 66.81C280.68 66.81 271.47 79.48 266.8 92.71C263.06 103.32 261.99 108.98 262.14 112.76C262.21 114.59 264.12 115.17 267.07 115.46C269.38 115.69 271.66 115.3 272.34 113.28C273.18 110.76 273.48 100.07 284.77 80.02C296.26 59.61 307.52 58.19 312.13 60.49C316.43 62.63 318.25 67.45 312.23 74.72C305.39 82.97 294.54 91.11 289.87 101.39C285.78 110.39 284.62 115.19 288.23 117.06C291.88 118.95 295.32 118.03 296.48 114.54C298.13 109.59 301.4 100.59 309.99 92.46C318.57 84.32 324.27 78.21 326.46 71.5C329.16 63.21 325.24 51.85 313.19 49.11C301.83 46.52 290.51 54.67 288.32 56.87C282.23 51.97 272.21 50.09 262.56 54.29C251.53 59.09 245.44 70.66 242.06 80.89L242.02 80.87Z" fill="#E6AF37"/>
<path d="M352.57 79.55C349.82 79.55 347.43 81.07 346.18 83.31C346.18 83.31 334.49 85.15 323.71 96.4C315.23 105.26 310.15 114.08 307.26 128.49C307.26 128.49 279.13 120.86 218.87 121.45C158.61 120.87 130.48 128.49 130.48 128.49C127.59 114.08 122.51 105.26 114.03 96.4C103.26 85.15 91.56 83.31 91.56 83.31C90.31 81.07 87.92 79.55 85.17 79.55C81.13 79.55 77.87 82.82 77.87 86.85C77.87 90.88 81.14 94.16 85.17 94.16C86.82 94.16 88.34 93.61 89.56 92.69C95.86 95.17 103.72 99.97 111.37 109.65C119.99 120.56 122.71 140.94 122.71 140.94C153.69 130.31 218.79 132.11 218.87 132.11C218.95 132.11 284.05 130.3 315.03 140.94C315.03 140.94 317.75 120.56 326.37 109.65C334.02 99.97 341.88 95.17 348.18 92.69C349.4 93.61 350.92 94.16 352.57 94.16C356.61 94.16 359.87 90.89 359.87 86.85C359.87 82.81 356.6 79.55 352.57 79.55Z" fill="#E6AF37"/>
<path d="M315.25 150.96V161.3C315.25 161.3 306.45 157.03 285.47 154.1C263.47 151.03 225.96 150.87 218.87 150.87C211.78 150.87 174.28 151.03 152.27 154.1C131.29 157.03 122.49 161.3 122.49 161.3V150.96C125.16 148.32 139.59 144.92 153.4 143.28C177.33 140.43 218.86 140.43 218.86 140.43C218.86 140.43 260.39 140.43 284.32 143.28C298.13 144.92 312.56 148.32 315.23 150.96H315.25Z" fill="#E6AF37"/>
<path d="M218.87 158.63C218.87 158.63 178.1 157.55 150.91 163.13C150.91 163.13 177.46 166.98 218.87 166.64C260.28 166.98 286.83 163.13 286.83 163.13C259.64 157.55 218.87 158.63 218.87 158.63Z" fill="#E6AF37"/>
<path d="M62.3 221.84C63.73 221.59 64.24 209.28 64.61 201.29C64.99 193.24 64.86 185.75 63.43 184.4C62.43 183.45 61.22 183.83 58.82 182.35C55.5 180.3 50.15 175.58 41.6 176.5C33.65 177.36 23.88 181.44 15.66 192.4C6.72 204.37 -0.739996 231.34 0.0600039 254.29C0.790004 275.38 4.41 298.63 19.73 316.54C33.45 332.57 48.53 330.78 52.52 330.43C57.53 329.98 67.14 326.33 68.23 322.5C68.98 319.87 69.85 301.33 69.79 299.08C69.73 296.83 66.59 297.24 66.54 299.15C66.46 302.19 63.88 313.97 61.75 317.57C59.61 321.17 54.7 324.79 48.05 323.86C25.28 320.66 21.7 281.14 20.97 255.42C20.17 227.53 23.49 210.22 28.64 198.18C33.45 186.94 39.48 182.21 46.39 183.24C52.69 184.18 56.63 190.81 56.49 198.45C56.33 207.4 56.28 215.72 57.22 218.82C58.12 221.8 60.61 222.17 62.33 221.86L62.3 221.84Z" fill="#2F4F4F"/>
<path d="M128.78 277.81C123.52 275.97 121.31 270.48 119.44 266.46C115.48 257.94 111.48 242.32 106.18 235.44C106.18 235.44 106.09 233.78 107.7 233.1C114.18 230.38 120.83 219.74 121.46 212.61C122.03 206.14 120.73 201.89 119.64 198.79C118.55 195.68 116.96 191.59 113.4 188.26C110.95 185.96 104.62 181.06 92.45 181.06C82.98 181.06 67.13 181.16 67.13 181.16C67.13 181.16 66.67 181.64 67.74 182.42C70.03 184.1 74.88 187.17 74.88 189.75V277.2C74.88 278.54 72.21 282.27 67.42 285.47C67.42 285.47 76.42 284.68 82.53 283.63C88.65 282.59 93.41 282.55 94.45 282.81C94.45 282.81 93.84 280.16 89.92 278.73V239.75H93.43C94.18 239.75 94.87 240.18 95.2 240.86C96.09 242.67 97.83 246.7 99.05 252.81C100.78 261.4 106.9 276.17 108.02 278.73C108.66 280.18 109.88 282.75 113.74 283.42C117.59 284.1 126.14 283.8 129.59 282.98C133.04 282.16 135.28 281.01 135.76 279.85C135.94 279.41 134.03 279.63 128.77 277.8L128.78 277.81ZM102.13 226.82C97.46 234.95 90.05 234.39 90.05 234.39V186.13C100.99 186.34 105.16 196.48 105.59 205.56C106.01 214.64 105.78 220.46 102.13 226.82Z" fill="#2F4F4F"/>
<path d="M177.1 199.86C172.04 185.28 162.59 181.03 153.47 180.7C144.34 181.03 134.9 185.27 129.84 199.86C124.56 215.07 125.91 235.37 126.68 242.98C127.45 250.59 130.04 280.14 153.47 280.14C176.9 280.14 179.49 250.58 180.26 242.98C181.03 235.38 182.38 215.07 177.1 199.86ZM163.44 261.91C162.34 269.19 159.88 274.79 154.03 274.96H152.91C147.06 274.79 144.6 269.19 143.5 261.91C142.37 254.52 141.48 210.02 143.67 196.87C145.17 187.85 149.96 186.23 153.47 186.23C156.98 186.23 161.76 187.85 163.27 196.87C165.46 210.03 164.57 254.52 163.44 261.91Z" fill="#2F4F4F"/>
<path d="M201.53 249.99L214.33 204.68L211.6 191.69C211.02 189.14 208.56 183.01 203.99 180.86V180.53H228.22V180.86C222.82 182.47 223.07 186.85 224.23 191.56L236.15 244.86L245.63 195.46C247.87 185.78 244.54 183.55 239.39 180.87V180.54H262.36V181.62C259.62 182.83 254.73 185.11 251.99 196.27L236.32 278.1C234.05 278.1 232.08 276.55 231.55 274.34L217.33 215.37C217.33 215.37 200.84 274.27 199.64 276.46C198.45 278.65 195.35 278.11 195.35 278.11L179.61 191.71C178.95 189.16 176.31 183.03 171.74 180.88V180.55H195.82V180.88C190.42 182.49 190.33 186.87 191.42 191.58L201.54 250.01L201.53 249.99Z" fill="#2F4F4F"/>
<path d="M248.12 180.53V181.71C248.12 181.71 252.59 182.73 255.11 185.12C257.63 187.51 257.76 194.68 257.76 198.48V264.93C257.76 268.65 255.33 274.46 249.4 277.42V278.24H272.63V277.48C272.63 277.48 266.08 274.35 265.24 269.52C264.4 264.7 265.24 214.31 265.24 211.7C265.24 209.09 278.95 239.97 282.49 247.67C286.03 255.37 294.66 269.66 296.16 272.97C297.66 276.29 298.73 279.74 305.32 279.69V193.12C305.32 186.88 309.48 184.05 313.59 182.72V180.82H288.95V181.5C288.95 181.5 295.72 183.65 297.8 188.2C299.88 192.76 299.7 243.06 299.66 244.78C299.62 246.51 295.63 236.77 290.46 225.71C285.28 214.65 272.85 191.69 270.38 186.38C267.9 181.07 267.9 180.51 266.22 180.51H248.13L248.12 180.53Z" fill="#2F4F4F"/>
<path d="M363.94 287.07C362.05 286.6 352.54 284.55 342.63 283.11C332.73 281.67 313.18 281.79 313.18 281.79C313.18 281.79 312.95 281.23 314.04 280.3C315.13 279.37 320.31 275.15 320.31 271.67V190.47C320.31 186.42 317.61 182.72 313.6 182.72V180.81C313.6 180.81 346.33 181.19 350.02 181.37C353.71 181.55 354.52 180.29 355.87 180.52C357.22 180.75 358.19 183.38 359.11 191.23C359.84 197.51 361.37 209.76 361.37 209.76C360.11 209.89 358.28 207.49 356.88 204.26C355.46 200.99 349.95 189.59 347.25 188.78C344.54 187.97 335.35 188.48 335.35 188.48V226.74C335.35 226.74 342.48 226.89 344.62 226.53C347.71 226 351.07 224.28 352.72 213.92H353.65V249.85H352.64C352.64 249.85 351.83 236.98 344.6 234.18C342.34 233.3 335.34 233.78 335.34 233.78V274.88C343.15 277.45 350.69 276.16 353.94 273.28C357.18 270.4 360.49 265.35 362.68 258.52C363.3 256.58 364.73 255.92 364.73 255.92C364.73 270.6 363.94 287.07 363.94 287.07Z" fill="#2F4F4F"/>
<path d="M423.72 196.89C412.97 179.95 398.41 177.29 386.89 176.72C375.38 176.15 364.62 175.86 360.15 175.86C358.53 175.86 371.57 181 371.57 188.42V314.41C371.57 320.5 359.39 325.74 359.11 329.54C359.11 329.54 373.67 330.78 385.09 330.3C396.51 329.83 426.96 320.6 434.67 281.87C442.38 243.14 434.48 213.83 423.73 196.9L423.72 196.89ZM414.01 288.95C409.51 322.24 388.23 323.36 388.23 323.36V190.23C388.23 185.23 387.1 182.59 387.1 182.59C405.98 183.35 410.62 200.48 413.25 215.5C415.88 230.51 418.51 255.67 414 288.95H414.01Z" fill="#2F4F4F"/>
<path d="M85.45 301.34C86.66 299.21 88.32 297.55 90.42 296.37C92.52 295.18 94.88 294.59 97.49 294.59C100.54 294.59 103.22 295.37 105.52 296.94C107.82 298.51 109.42 300.67 110.34 303.44H104.03C103.4 302.13 102.52 301.16 101.39 300.5C100.25 299.85 98.94 299.52 97.45 299.52C95.86 299.52 94.44 299.89 93.2 300.64C91.96 301.38 90.99 302.44 90.3 303.79C89.61 305.15 89.26 306.74 89.26 308.57C89.26 310.4 89.61 311.96 90.3 313.33C90.99 314.7 91.96 315.76 93.2 316.5C94.44 317.24 95.86 317.62 97.45 317.62C98.94 317.62 100.25 317.29 101.39 316.62C102.53 315.95 103.41 314.97 104.03 313.66H110.34C109.43 316.45 107.83 318.63 105.54 320.18C103.26 321.73 100.57 322.51 97.49 322.51C94.88 322.51 92.52 321.92 90.42 320.73C88.32 319.54 86.66 317.89 85.45 315.78C84.24 313.66 83.63 311.26 83.63 308.57C83.63 305.88 84.24 303.47 85.45 301.35V301.34Z" fill="#2F4F4F"/>
<path d="M128.51 320.74C126.37 319.54 124.67 317.88 123.42 315.75C122.17 313.62 121.54 311.21 121.54 308.53C121.54 305.85 122.17 303.47 123.42 301.34C124.67 299.21 126.37 297.55 128.51 296.35C130.65 295.15 133 294.55 135.56 294.55C138.12 294.55 140.5 295.15 142.63 296.35C144.76 297.55 146.44 299.22 147.68 301.34C148.92 303.47 149.54 305.86 149.54 308.53C149.54 311.2 148.92 313.63 147.68 315.75C146.44 317.88 144.75 319.54 142.61 320.74C140.47 321.94 138.12 322.54 135.56 322.54C133 322.54 130.65 321.94 128.51 320.74ZM139.91 316.53C141.16 315.79 142.14 314.72 142.85 313.34C143.56 311.96 143.91 310.35 143.91 308.52C143.91 306.69 143.56 305.09 142.85 303.72C142.14 302.35 141.17 301.3 139.91 300.57C138.66 299.84 137.21 299.47 135.56 299.47C133.91 299.47 132.46 299.84 131.19 300.57C129.92 301.3 128.94 302.35 128.23 303.72C127.53 305.09 127.17 306.69 127.17 308.52C127.17 310.35 127.52 311.95 128.23 313.34C128.93 314.72 129.92 315.79 131.19 316.53C132.46 317.27 133.91 317.65 135.56 317.65C137.21 317.65 138.65 317.28 139.91 316.53Z" fill="#2F4F4F"/>
<path d="M191.24 294.94V322.27H185.76V304.49L178.44 322.27H174.29L166.93 304.49V322.27H161.45V294.94H167.68L176.37 315.27L185.06 294.94H191.25H191.24Z" fill="#2F4F4F"/>
<path d="M221.36 294.94V299.37H209.96V306.38H218.69V310.73H209.96V322.28H204.48V294.95H221.36V294.94Z" fill="#2F4F4F"/>
<path d="M238.71 320.74C236.57 319.54 234.87 317.88 233.62 315.75C232.37 313.62 231.74 311.21 231.74 308.53C231.74 305.85 232.37 303.47 233.62 301.34C234.87 299.21 236.57 297.55 238.71 296.35C240.85 295.15 243.2 294.55 245.76 294.55C248.32 294.55 250.7 295.15 252.83 296.35C254.96 297.55 256.64 299.22 257.88 301.34C259.12 303.46 259.74 305.86 259.74 308.53C259.74 311.2 259.12 313.63 257.88 315.75C256.64 317.88 254.95 319.54 252.81 320.74C250.67 321.94 248.32 322.54 245.76 322.54C243.2 322.54 240.85 321.94 238.71 320.74ZM250.11 316.53C251.36 315.79 252.34 314.72 253.05 313.34C253.75 311.96 254.11 310.35 254.11 308.52C254.11 306.69 253.76 305.09 253.05 303.72C252.34 302.35 251.37 301.3 250.11 300.57C248.86 299.84 247.41 299.47 245.76 299.47C244.11 299.47 242.66 299.84 241.39 300.57C240.12 301.3 239.14 302.35 238.43 303.72C237.72 305.09 237.37 306.69 237.37 308.52C237.37 310.35 237.72 311.95 238.43 313.34C239.14 314.73 240.12 315.79 241.39 316.53C242.66 317.27 244.11 317.65 245.76 317.65C247.41 317.65 248.85 317.28 250.11 316.53Z" fill="#2F4F4F"/>
<path d="M285.74 322.27L279.71 311.62H277.13V322.27H271.65V294.94H281.91C284.02 294.94 285.83 295.31 287.31 296.06C288.8 296.8 289.91 297.81 290.66 299.08C291.4 300.35 291.78 301.76 291.78 303.33C291.78 305.13 291.26 306.76 290.21 308.2C289.17 309.65 287.61 310.65 285.55 311.2L292.09 322.28H285.75L285.74 322.27ZM277.12 307.51H281.7C283.19 307.51 284.3 307.15 285.03 306.43C285.76 305.71 286.13 304.71 286.13 303.43C286.13 302.15 285.76 301.2 285.03 300.51C284.3 299.82 283.19 299.47 281.7 299.47H277.12V307.5V307.51Z" fill="#2F4F4F"/>
<path d="M323.18 294.94V299.37H315.9V322.28H310.42V299.37H303.14V294.94H323.19H323.18Z" fill="#2F4F4F"/>
<path d="M339.29 321.57C337.76 320.92 336.55 319.98 335.67 318.75C334.78 317.52 334.32 316.07 334.3 314.4H340.17C340.25 315.52 340.65 316.41 341.36 317.06C342.07 317.71 343.06 318.04 344.32 318.04C345.58 318.04 346.6 317.73 347.34 317.12C348.07 316.51 348.44 315.7 348.44 314.71C348.44 313.9 348.19 313.24 347.7 312.71C347.2 312.19 346.58 311.78 345.84 311.48C345.1 311.18 344.07 310.85 342.77 310.48C340.99 309.96 339.55 309.44 338.44 308.93C337.33 308.42 336.38 307.65 335.58 306.62C334.78 305.59 334.39 304.21 334.39 302.49C334.39 300.87 334.79 299.46 335.6 298.26C336.41 297.06 337.54 296.14 339.01 295.5C340.47 294.86 342.14 294.54 344.02 294.54C346.84 294.54 349.13 295.23 350.89 296.6C352.65 297.97 353.62 299.88 353.81 302.34H347.78C347.73 301.4 347.33 300.62 346.59 300.01C345.85 299.4 344.86 299.09 343.63 299.09C342.56 299.09 341.7 299.36 341.07 299.91C340.43 300.46 340.11 301.26 340.11 302.3C340.11 303.03 340.35 303.64 340.83 304.12C341.31 304.6 341.91 305 342.63 305.3C343.35 305.6 344.36 305.95 345.66 306.34C347.44 306.86 348.88 307.38 350.01 307.91C351.13 308.43 352.1 309.22 352.91 310.26C353.72 311.3 354.12 312.68 354.12 314.37C354.12 315.83 353.74 317.19 352.98 318.44C352.22 319.69 351.11 320.69 349.65 321.44C348.19 322.18 346.45 322.56 344.44 322.56C342.53 322.56 340.82 322.23 339.29 321.58V321.57Z" fill="#2F4F4F"/>
</g>
<defs>
<clipPath id="clip0_1_3">
<rect width="437.74" height="330.66" fill="white"/>
</clipPath>
</defs>
</svg>
