<svg width="58" height="24" viewBox="0 0 58 24" fill="none" xmlns="http://www.w3.org/2000/svg">
<g id="Group">
<path id="Vector" fill-rule="evenodd" clip-rule="evenodd" d="M57.5639 12.4005C57.5639 8.29906 55.5962 5.06274 51.8353 5.06274C48.0585 5.06274 45.7734 8.29906 45.7734 12.3685C45.7734 17.1909 48.4711 19.6262 52.3431 19.6262C54.2315 19.6262 55.6597 19.1936 56.7387 18.5848V15.3805C55.6597 15.9252 54.4219 16.2617 52.8509 16.2617C51.3116 16.2617 49.9469 15.7169 49.7724 13.8264H57.5322C57.5322 13.6182 57.5639 12.785 57.5639 12.4005ZM49.7248 10.8785C49.7248 9.06808 50.8197 8.31508 51.8194 8.31508C52.7874 8.31508 53.8189 9.06808 53.8189 10.8785H49.7248Z" fill="#635BFF"/>
<path id="Vector_2" fill-rule="evenodd" clip-rule="evenodd" d="M39.6485 5.06274C38.0934 5.06274 37.0936 5.79973 36.5382 6.31241L36.3319 5.31909H32.8408V24L36.808 23.1509L36.8239 18.6168C37.3951 19.0334 38.2362 19.6262 39.6326 19.6262C42.4731 19.6262 45.0597 17.3191 45.0597 12.2403C45.0439 7.59412 42.4255 5.06274 39.6485 5.06274ZM38.6964 16.1015C37.7601 16.1015 37.2047 15.765 36.8239 15.3485L36.808 9.40453C37.2206 8.93991 37.7919 8.61949 38.6964 8.61949C40.1404 8.61949 41.1402 10.2537 41.1402 12.3525C41.1402 14.4993 40.1563 16.1015 38.6964 16.1015Z" fill="#635BFF"/>
<path id="Vector_3" fill-rule="evenodd" clip-rule="evenodd" d="M27.3809 4.11749L31.3639 3.25234V0L27.3809 0.849132V4.11749Z" fill="#635BFF"/>
<path id="Vector_4" d="M31.3639 5.33508H27.3809V19.3538H31.3639V5.33508Z" fill="#635BFF"/>
<path id="Vector_5" fill-rule="evenodd" clip-rule="evenodd" d="M23.1122 6.52074L22.8583 5.33516H19.4307V19.3539H23.3978V9.85318C24.3341 8.61954 25.921 8.84384 26.4129 9.02007V5.33516C25.9051 5.14291 24.0485 4.79043 23.1122 6.52074Z" fill="#635BFF"/>
<path id="Vector_6" fill-rule="evenodd" clip-rule="evenodd" d="M15.1789 1.8584L11.3069 2.69151L11.291 15.5246C11.291 17.8958 13.0524 19.6421 15.401 19.6421C16.7023 19.6421 17.6544 19.4018 18.178 19.1134V15.8611C17.6702 16.0693 15.163 16.8063 15.163 14.4352V8.74758H18.178V5.33503H15.163L15.1789 1.8584Z" fill="#635BFF"/>
<path id="Vector_7" fill-rule="evenodd" clip-rule="evenodd" d="M4.45131 9.40453C4.45131 8.7797 4.95911 8.53938 5.80016 8.53938C7.00618 8.53938 8.52958 8.90787 9.7356 9.56475V5.79973C8.4185 5.27102 7.11726 5.06274 5.80016 5.06274C2.5788 5.06274 0.436523 6.76101 0.436523 9.59679C0.436523 14.0187 6.46664 13.3137 6.46664 15.2203C6.46664 15.9573 5.83189 16.1976 4.94324 16.1976C3.62614 16.1976 1.94405 15.6529 0.611079 14.9159V18.729C2.08687 19.3698 3.57853 19.6422 4.94324 19.6422C8.24394 19.6422 10.5132 17.992 10.5132 15.1242C10.4973 10.3498 4.45131 11.1989 4.45131 9.40453Z" fill="#635BFF"/>
</g>
</svg>
