<svg width="100" height="24" viewBox="0 0 100 24" fill="none" xmlns="http://www.w3.org/2000/svg">
<g id="Logo.svg" clip-path="url(#clip0_249_185)">
<g id="LOGOS">
<path id="Vector" d="M8.96526 9.45044V8.51607C8.63911 8.46802 8.31296 8.44666 7.98146 8.44666C3.96607 8.44132 0.699219 11.7036 0.699219 15.7187C0.699219 18.0947 1.85946 20.3158 3.81101 21.6774C2.55453 20.3319 1.85411 18.5646 1.85411 16.7225C1.85411 12.7661 5.03007 9.54121 8.96526 9.45044Z" fill="#25F4EE"/>
<path id="Vector_2" d="M9.1415 20.0436C10.9273 20.0383 12.3923 18.6287 12.4618 16.8454L12.4672 1.00378H15.3651C15.3009 0.672747 15.2742 0.336374 15.2742 0H11.3176L11.3069 15.8416C11.2428 17.673 9.70291 19.1039 7.86898 19.0398C7.37174 19.0238 6.87984 18.8903 6.44141 18.6607C7.06163 19.5257 8.06681 20.0436 9.1415 20.0436Z" fill="#25F4EE"/>
<path id="Vector_3" d="M20.7817 6.38042V5.49945C19.7177 5.49945 18.6751 5.18977 17.7822 4.60779C18.5628 5.51012 19.6162 6.12948 20.7817 6.38042Z" fill="#25F4EE"/>
<path id="Vector_4" d="M17.7825 4.60779C16.911 3.60935 16.4297 2.32792 16.4297 1.00378H15.3711C15.6438 2.48276 16.5153 3.78554 17.7825 4.60779Z" fill="#FE2C55"/>
<path id="Vector_5" d="M7.9868 12.3925C6.14752 12.3925 4.66113 13.8768 4.66113 15.7135C4.66113 16.9522 5.34551 18.0841 6.44694 18.6554C5.3669 17.1764 5.69305 15.1102 7.16875 14.0316C8.01888 13.4123 9.1203 13.2307 10.1255 13.5511V9.5146C9.79934 9.46655 9.47319 9.44519 9.14169 9.44519C9.08288 9.44519 9.02941 9.45053 8.97059 9.45053V12.5473C8.64979 12.4459 8.31829 12.3925 7.9868 12.3925Z" fill="#FE2C55"/>
<path id="Vector_6" d="M20.7811 6.38037V9.45045C18.8028 9.45045 16.8779 8.83643 15.2739 7.68315V15.7187C15.2739 19.7339 12.0071 22.9962 7.98634 22.9962C6.48926 22.9962 5.03495 22.537 3.81055 21.6774C5.18466 23.1563 7.11482 23.9999 9.14123 23.9999C13.1566 23.9999 16.4288 20.7377 16.4288 16.7225V8.68693C18.0328 9.84022 19.9577 10.4596 21.936 10.4542V6.50317C21.5456 6.50317 21.1607 6.46046 20.7811 6.38037Z" fill="#FE2C55"/>
<path id="Vector_7" d="M15.2748 15.7188V7.6832C16.8788 8.83649 18.8036 9.45584 20.7819 9.4505V6.38042C19.6163 6.12948 18.563 5.51012 17.7824 4.60779C16.5152 3.78554 15.6437 2.48276 15.3657 1.00378H12.4677L12.4624 16.8454C12.3982 18.6768 10.8584 20.1077 9.02445 20.0436C7.99788 20.0062 7.04082 19.499 6.44198 18.6607C4.81658 17.8118 4.18567 15.8042 5.03579 14.1758C5.60789 13.0812 6.74675 12.3924 7.98184 12.3924C8.31334 12.3924 8.64484 12.4458 8.96564 12.5473V9.4505C5.03045 9.54661 1.85449 12.7715 1.85449 16.7279C1.85449 18.57 2.55491 20.3373 3.81139 21.6828C5.03579 22.5424 6.4901 23.0016 7.98719 23.0016C12.0026 22.9962 15.2748 19.7286 15.2748 15.7188Z" fill="black"/>
<path id="Vector_8" d="M25.8506 6.39111H38.2229L37.0894 9.92571H33.8814V22.9909H29.882V9.92571L25.8613 9.93105L25.8506 6.39111Z" fill="black"/>
<path id="Vector_9" d="M58.4814 6.39111H71.1372L70.0036 9.92571H66.5176V22.9909H62.5075V9.92571L58.4868 9.93105L58.4814 6.39111Z" fill="black"/>
<path id="Vector_10" d="M38.9766 11.6716H42.9385V22.9909H38.9979L38.9766 11.6716Z" fill="black"/>
<path id="Vector_11" d="M44.5161 6.34839H48.478V14.0796L52.4025 10.2354H57.129L52.1619 15.0407L57.7225 22.9909H53.3596L49.6489 17.4808L48.4727 18.618V22.9909H44.5107L44.5161 6.34839Z" fill="black"/>
<path id="Vector_12" d="M86.4878 6.34839H90.4497V14.0796L94.3742 10.2354H99.1007L94.1336 15.0407L99.6942 22.9909H95.3313L91.6206 17.4808L90.4443 18.618V22.9909H86.4824L86.4878 6.34839Z" fill="black"/>
<path id="Vector_13" d="M42.8009 9.14967C43.2224 8.13347 42.7392 6.96845 41.7216 6.54752C40.7039 6.12658 39.5373 6.60914 39.1158 7.62534C38.6942 8.64154 39.1775 9.80656 40.1951 10.2275C41.2127 10.6484 42.3794 10.1659 42.8009 9.14967Z" fill="black"/>
<path id="Vector_14" d="M70.6287 16.2153C70.6287 12.6808 73.3555 9.73882 76.8843 9.46118C76.7079 9.4505 76.4673 9.43982 76.2909 9.43982C72.5428 9.43982 69.5059 12.4779 69.5059 16.2153C69.5059 19.9582 72.5428 22.9855 76.2909 22.9909C76.4673 22.9909 76.7079 22.9802 76.8843 22.9695C73.3555 22.6919 70.634 19.7499 70.6287 16.2153Z" fill="#25F4EE"/>
<path id="Vector_15" d="M78.425 9.43982C78.2432 9.43982 78.0026 9.4505 77.8262 9.46118C81.5582 9.75484 84.3492 13.0171 84.0551 16.7439C83.7931 20.065 81.1518 22.7026 77.8262 22.9642C78.0026 22.9802 78.2432 22.9855 78.425 22.9855C82.1731 22.9855 85.21 19.9475 85.21 16.21C85.21 12.4725 82.1731 9.43982 78.425 9.43982Z" fill="#FE2C55"/>
<path id="Vector_16" d="M77.3553 19.5097C75.5321 19.5097 74.0564 18.036 74.0564 16.2153C74.0564 14.3947 75.5321 12.921 77.3553 12.921C79.1785 12.921 80.6542 14.3947 80.6542 16.2153C80.6542 18.036 79.1785 19.5097 77.3553 19.5097ZM77.3553 9.43982C73.6072 9.43982 70.5703 12.4725 70.5703 16.2153C70.5703 19.9582 73.6072 22.9909 77.3553 22.9909C81.1034 22.9909 84.1403 19.9582 84.1403 16.2153C84.1403 12.4725 81.098 9.43982 77.3553 9.43982Z" fill="black"/>
</g>
</g>
<defs>
<clipPath id="clip0_249_185">
<rect width="99" height="24" fill="white" transform="translate(0.699219)"/>
</clipPath>
</defs>
</svg>
