<svg width="28" height="28" viewBox="0 0 28 28" fill="none" xmlns="http://www.w3.org/2000/svg">
<path d="M19.1747 7.0475C18.4058 6.16947 17.9821 5.04207 17.9822 3.875H14.5059V17.825C14.4797 18.5801 14.1611 19.2955 13.6175 19.8202C13.0739 20.3449 12.3477 20.638 11.5922 20.6375C9.99469 20.6375 8.66719 19.3325 8.66719 17.7125C8.66719 15.7775 10.5347 14.3263 12.4584 14.9225V11.3675C8.57719 10.85 5.17969 13.865 5.17969 17.7125C5.17969 21.4587 8.28469 24.125 11.5809 24.125C15.1134 24.125 17.9822 21.2563 17.9822 17.7125V10.6363C19.3918 11.6486 21.0842 12.1917 22.8197 12.1888V8.7125C22.8197 8.7125 20.7047 8.81375 19.1747 7.0475Z" fill="white"/>
</svg>
